{"accessors" : [{"bufferView" : 0, "byteOffset" : 0, "componentType" : 5123, "count" : 112512, "type" : "SCALAR", "max" : [20143], "min" : [0]}, {"bufferView" : 1, "byteOffset" : 0, "componentType" : 5126, "count" : 20144, "type" : "VEC3", "max" : [1.366129994392395, 1.2700879573822021, 3.709918975830078], "min" : [-1.391672968864441, -1.1631840467453003, -0.000534999999217689], "name" : "POSITION"}, {"bufferView" : 1, "byteOffset" : 12, "componentType" : 5126, "count" : 20144, "type" : "VEC3", "max" : [1.0000044107437134, 1.0000044107437134, 1.0000044107437134], "min" : [-1.0000044107437134, -1.0000044107437134, -1.0000044107437134], "name" : "NORMAL"}], "asset" : {"generator" : "Aspose.3D 24.6.0", "version" : "2.0"}, "buffers" : [{"uri" : "buffer.bin", "byteLength" : 2460692}], "bufferViews" : [{"buffer" : 0, "byteOffset" : 0, "byteLength" : 225024, "target" : 34963}, {"buffer" : 0, "byteOffset" : 225028, "byteLength" : 483456, "byteStride" : 24, "target" : 34962}, {"buffer" : 0, "byteOffset" : 708488, "byteLength" : 753822}, {"buffer" : 0, "byteOffset" : 1462312, "byteLength" : 998043}, {"buffer" : 0, "byteOffset" : 2460356, "byteLength" : 333}], "images" : [{"mimeType" : "image/jpeg", "bufferView" : 2}, {"mimeType" : "image/jpeg", "bufferView" : 3}, {"mimeType" : "image/jpeg", "bufferView" : 4}], "materials" : [{"name" : "Tool", "pbrMetallicRoughness" : {"baseColorFactor" : [1, 1, 1, 1], "baseColorTexture" : {"index" : 1, "texCoord" : 0}, "metallicFactor" : 0, "roughnessFactor" : 0, "metallicRoughnessTexture" : {"index" : 2, "texCoord" : 0}}, "normalTexture" : {"index" : 0, "texCoord" : 0, "scale" : 1}, "emissiveFactor" : [0, 0, 0], "alphaMode" : "OPAQUE", "doubleSided" : false}], "meshes" : [{"primitives" : [{"attributes" : {"POSITION" : 1, "NORMAL" : 2}, "indices" : 0, "material" : 0, "mode" : 4}], "name" : "Object_0"}], "nodes" : [{"mesh" : 0, "name" : "Object_2"}, {"children" : [0], "name" : "chair_obj_cleaner_materialmerger_gles"}, {"children" : [1], "matrix" : [0.8031130433082581, -1.323000877348989E-16, 0.5958266258239746, 0, 0.5958266258239746, 1.7832691841152172E-16, -0.8031130433082581, 0, 0, 1, 2.220446049250313E-16, 0, -0.03436422720551491, 6.475930841228649E-19, -0.002916499972343445, 1], "name" : "Sketchfab_model"}, {"children" : [2], "matrix" : [80.8526382446289, 0, 0, 0, 0, 80.8526382446289, 0, 0, 0, 0, 80.8526382446289, 0, 0, 0, 0, 1], "name" : "Meshes"}, {"children" : [3], "name" : "scene"}], "samplers" : [{"magFilter" : 9729, "minFilter" : 9729, "wrapS" : 10497, "wrapT" : 10497}, {"magFilter" : 9729, "minFilter" : 9729, "wrapS" : 10497, "wrapT" : 10497}, {"magFilter" : 9729, "minFilter" : 9729, "wrapS" : 10497, "wrapT" : 10497}], "scene" : 0, "scenes" : [{"nodes" : [4]}], "textures" : [{"sampler" : 0, "source" : 0, "name" : "tex_normal"}, {"sampler" : 1, "source" : 1, "name" : "tex_base"}, {"sampler" : 2, "source" : 2, "name" : "tex_metallic"}]}